<svg xmlns="http://www.w3.org/2000/svg" xmlns:xlink="http://www.w3.org/1999/xlink" viewBox="0 0 320 320"><linearGradient id="a" gradientUnits="userSpaceOnUse" x1="7.273" y1="80.913" x2="134.058" y2="80.913"><stop offset=".008" stop-color="#e6ff63"/><stop offset=".99" stop-color="#cddb34"/></linearGradient><path fill="url(#a)" d="M80.7 95.5c8.8 1.6 16.5 6.8 22.5 13.5 8.3-9.3 18.9-16.5 30.9-20.8-1.9-2.4-3.8-4.8-5.8-7.2-2.8-3.6-6.8-7.5-11.2-6.3-2.6.7-4.4 3.1-7 3.7-3.9 1-7.7-2.1-9.3-5.8-1.6-3.6-1.8-7.7-3-11.6-1.2-3.8-3.9-7.7-7.8-8.1-4.7-.6-8.4 3.7-11.3 7.4-18 23-42.5 33.5-71.3 40v8.6c15.7-3.7 31.5-7.3 47.2-11 8.5-2 17.4-4 26.1-2.4z"/><linearGradient id="b" gradientUnits="userSpaceOnUse" x1="7.273" y1="116.11" x2="103.173" y2="116.11"><stop offset="0" stop-color="#cddb34"/><stop offset=".973" stop-color="#98af39"/></linearGradient><path fill="url(#b)" d="M46.8 116.3c11.5 2.9 20.9 10.6 29.7 18.7 3.6.3 7.2 1 10.6 2.3 3.3-10.6 8.9-20.3 16.1-28.3-6-6.8-13.7-11.9-22.5-13.5-8.7-1.6-17.6.4-26.2 2.4-15.7 3.7-31.5 7.3-47.2 11v12.9c2.6-1.2 5.2-2.2 7.9-3.1 10.1-3.6 21.2-5.1 31.6-2.4z"/><linearGradient id="c" gradientUnits="userSpaceOnUse" x1="7.273" y1="159.441" x2="87.06" y2="159.441"><stop offset="0" stop-color="#98af39"/><stop offset="1" stop-color="#cddb34"/></linearGradient><path fill="url(#c)" d="M76.5 135c-5.5-.5-11.2-.1-16.6.8-10.3 1.6-20.4 4.7-30.8 5.7-7.3.7-15 .2-21.8-2.4V174c14.2 11.9 33.8 13.8 47.4 2.5 4.3-3.6 7.6-8.3 11.2-12.7 3.5-4.4 7.6-8.7 12.8-10.8 1.7-.7 3.5-1.1 5.4-1.1.5-5 1.5-9.9 3-14.6-3.4-1.2-7-2-10.6-2.3z"/><linearGradient id="d" gradientUnits="userSpaceOnUse" x1="7.273" y1="53.773" x2="240.261" y2="53.773"><stop offset="0" stop-color="#b3ef7f"/><stop offset=".25" stop-color="#b1ee82"/><stop offset=".44" stop-color="#acea8c"/><stop offset=".61" stop-color="#a2e39c"/><stop offset=".769" stop-color="#95dab3"/><stop offset=".918" stop-color="#84ced0"/><stop offset="1" stop-color="#79c6e4"/></linearGradient><path fill="url(#d)" d="M78.6 60.3c2.9-3.7 6.6-8 11.3-7.4 4 .5 6.7 4.3 7.8 8.1 1.2 3.8 1.4 7.9 3 11.6 1.6 3.6 5.5 6.8 9.3 5.8 2.6-.7 4.4-3.1 7-3.7 4.4-1.2 8.4 2.8 11.2 6.3 2 2.5 3.9 4.9 5.8 7.2 8.1-2.9 16.8-4.5 25.9-4.5 2.3 0 4.5.1 6.7.3 2.5-12 13.1-22.3 25.4-23.6 7.3-.8 14.7 1.3 21.9.1 10.6-1.7 18.9-9.8 26.3-17.7-1.9-3.2-4.5-5.8-7.9-7.6-9-4.8-20-4-29.7-.8-4.6 1.5-9.1 3.5-13.5 5.6 10.9.5 31.2 6.4 24.8 10.1-4.5 2.6-26.4-6.8-44.9 6.3-8 5.7-18.8 9-28.2 6.1-10.1-3.1-16.2-15.5-26.8-16-2.5-.1-5 .5-7.5.5-2.5.1-5.2-.6-6.8-2.5-4.7-5.5 1.6-11.5 11.1-9.2 3.7.9 7.4 2.3 11.2 2.2.8 0 1.5-.1 2.3-.3-1-1.2-1.9-2.4-2.8-3.7-5.5-8-9-17.1-12.5-26.1H81.4c3.8 5.8 7.3 11.9 8.2 18.7C90.8 34.4 86.9 44 79 46.6c-6.3 2.1-12.9-.6-19.4-2.1-14.1-3.3-29.5-.5-41.5 7.6-4 2.7-7.6 5.9-10.8 9.6v38.7c28.8-6.6 53.3-17.1 71.3-40.1z"/><linearGradient id="e" gradientUnits="userSpaceOnUse" x1="7.273" y1="128.377" x2="76.493" y2="128.377"><stop offset=".008" stop-color="#e6ff63"/><stop offset=".99" stop-color="#cddb34"/></linearGradient><path fill="url(#e)" d="M29.1 141.5c10.4-1 20.5-4.1 30.8-5.7 5.5-.9 11.1-1.3 16.6-.8-8.8-8.2-18.2-15.8-29.7-18.7-10.4-2.7-21.5-1.2-31.6 2.3-2.7.9-5.3 2-7.9 3.1v17.4c6.8 2.6 14.5 3.1 21.8 2.4z"/><linearGradient id="f" gradientUnits="userSpaceOnUse" x1="109.132" y1="25.003" x2="261.408" y2="25.003"><stop offset=".01" stop-color="#7dd170"/><stop offset="1" stop-color="#679efb"/></linearGradient><path fill="url(#f)" d="M124.4 37.1c5.6-1.2 10.6-5.5 16.4-5.6 7.2-.1 12.7 6.2 19.2 9.4 8.4 4.1 16.6-.2 25.9-1 .9-.1 2-.1 3.2 0 4.4-2.1 8.9-4.1 13.5-5.6 9.7-3.1 20.7-4 29.7.8 3.5 1.9 6 4.5 7.9 7.6.3-.4.7-.8 1-1.1 6.4-7 13-14.1 16.9-22.8 1.7-3.6 2.8-7.6 3.2-11.6H109.1c3.4 9.1 7 18.2 12.5 26.1.9 1.4 1.8 2.6 2.8 3.8z"/><linearGradient id="g" gradientUnits="userSpaceOnUse" x1="7.273" y1="34.418" x2="89.782" y2="34.418"><stop offset=".008" stop-color="#c3ffa3"/><stop offset="1" stop-color="#d8ff71"/></linearGradient><path fill="url(#g)" d="M18.1 51.9c12-8 27.4-10.8 41.5-7.6 6.4 1.5 13.1 4.2 19.4 2.1 8-2.6 11.8-12.2 10.6-20.5-.9-6.8-4.4-12.9-8.2-18.7H7.3v54.3c3.1-3.6 6.7-6.9 10.8-9.6z"/><linearGradient id="h" gradientUnits="userSpaceOnUse" x1="89.213" y1="250.06" x2="148.72" y2="250.06"><stop offset="0" stop-color="#e1763b"/><stop offset=".982" stop-color="#e5a327"/></linearGradient><path fill="url(#h)" d="M125.6 236.2c-6.7.4-13.4-.7-20.1.1-6.6.9-13.6 4.4-15.7 10.8-2.3 6.7 2 14.4 8.3 17.7 6.3 3.3 14 2.8 20.8.6 13.9-4.4 25.3-16.1 29.8-29.9-3.9-.6-7.6-1.4-11.3-2.6-3.4 2.1-7.7 3-11.8 3.3z"/><linearGradient id="i" gradientUnits="userSpaceOnUse" x1="166.705" y1="74.224" x2="244.491" y2="74.224"><stop offset="0" stop-color="#72b8e4"/><stop offset=".99" stop-color="#6aa5de"/></linearGradient><path fill="url(#i)" d="M243.8 74.1c-14.8 7.7-36.4 12.1-45.8 9.6-4.4-1.2-2.7-4.4 1.5-4.6 18.6-.7 34.8-12.4 45-21.5-.4-5.5-1.7-10.6-4.2-14.8-7.4 8-15.6 16.1-26.3 17.7-7.2 1.1-14.6-.9-21.9-.1-12.3 1.3-22.8 11.6-25.4 23.6 18.3 1.6 34.7 9.6 47 21.8 8.2-4.7 16.6-9 25.4-12.4 1.3-3.3 2.4-6.7 3.1-10.2.7-2.9 1.2-6 1.6-9.1z"/><linearGradient id="j" gradientUnits="userSpaceOnUse" x1="239.143" y1="50.285" x2="312.727" y2="50.285"><stop offset="0" stop-color="#7ccafc"/><stop offset=".979" stop-color="#698add"/></linearGradient><path fill="url(#j)" d="M241.3 41.6c-.3.4-.7.8-1 1.1 2.5 4.2 3.8 9.3 4.2 14.8 3.4-3.1 6.1-5.8 8-7.8 10.2-10.7 23.7-16.3 33.8-11.9 22.1 9.6 39.2 40.3 9.3 30.2-22.2-7.4-31.7-6.5-46.8 3.2-1.5 1-3.2 1.9-4.9 2.8-.4 3.1-1 6.2-1.6 9.1-.7 3.5-1.8 6.9-3.1 10.2h.1c18-7.1 38-10.6 56.9-6.6 5.6 1.2 11.1 3 16.5 4.9V7.3h-51.3c-.4 4-1.5 7.9-3.2 11.6-3.9 8.6-10.5 15.7-16.9 22.7z"/><linearGradient id="k" gradientUnits="userSpaceOnUse" x1="7.273" y1="189.917" x2="84.066" y2="189.917"><stop offset="0" stop-color="#e5a327"/><stop offset=".992" stop-color="#f6e150"/></linearGradient><path fill="url(#k)" d="M38.5 222.5c2.9-5.4 2.9-11.8 5.7-17.2 3.1-5.9 10-8.5 16.2-10.9s13-5.7 15.2-11.9c1.3-3.6.8-7.6 1.9-11.2 1-3.3 3.4-6 6.2-8 0-1.1-.1-2.1-.1-3.2 0-2.7.1-5.5.4-8.1-1.8.1-3.7.5-5.4 1.1-5.3 2.1-9.3 6.4-12.8 10.8S59 173 54.6 176.6C41.1 187.8 21.4 186 7.3 174v47.2c13.7 5.2 25.6 11.5 31.2 1.3z"/><linearGradient id="l" gradientUnits="userSpaceOnUse" x1="213.702" y1="105.094" x2="239.143" y2="105.094"><stop offset=".008" stop-color="#86dece"/><stop offset=".997" stop-color="#c0ebfa"/></linearGradient><path fill="url(#l)" d="M223 116.9c7-6.6 12.6-14.7 16.1-23.6-8.8 3.5-17.2 7.7-25.4 12.4 3.5 3.4 6.6 7.2 9.3 11.2z"/><linearGradient id="m" gradientUnits="userSpaceOnUse" x1="242.383" y1="203.041" x2="312.727" y2="203.041"><stop offset="0" stop-color="#a698de"/><stop offset=".032" stop-color="#a599df"/><stop offset=".611" stop-color="#9aaaf4"/><stop offset="1" stop-color="#96b0fb"/></linearGradient><path fill="url(#m)" d="M279.1 186.3c-14-4.6-30.8 3.8-35.7 17.6-1.9 5.4-1.6 12.5 3.2 15.6 5.1 3.3 11.6.3 17.2-2 15.3-6.4 32.7-7.6 48.8-3.5v-6.1c-2.4-1-4.7-2.2-6.9-3.6-8.9-5.8-16.3-14.6-26.6-18z"/><linearGradient id="n" gradientUnits="userSpaceOnUse" x1="7.273" y1="222.874" x2="85.528" y2="222.874"><stop offset="0" stop-color="#df6639"/><stop offset=".982" stop-color="#e5a327"/></linearGradient><path fill="url(#n)" d="M46.3 254.5c5.5-6.7 9.5-15 9.6-23.7 0-6.9-2.4-14.1.2-20.5 4.6-11.4 21.8-13.1 27-24.3 1.3-2.9 1.7-6.1 2.4-9.2-1-4.5-1.6-9.1-1.8-13.8-2.8 2-5.2 4.7-6.2 8-1.1 3.6-.7 7.6-1.9 11.2-2.2 6.3-9 9.6-15.2 11.9s-13.1 5-16.2 10.9c-2.9 5.4-2.8 11.9-5.7 17.2-5.6 10.2-17.5 3.9-31.2-1.2v61.3c16.7-6 30.4-17.2 39-27.8z"/><linearGradient id="o" gradientUnits="userSpaceOnUse" x1="164.059" y1="242.797" x2="312.727" y2="242.797"><stop offset="0" stop-color="#a16e9c"/><stop offset=".264" stop-color="#9d7fbe"/><stop offset=".572" stop-color="#9a90df"/><stop offset=".829" stop-color="#989af4"/><stop offset="1" stop-color="#979efb"/></linearGradient><path fill="url(#o)" d="M278.5 174.2c-9.9-2.9-21-1-29.3 5.1-16.3 12.1-16.9 34.7-32.7 47.5-12.2 9.8-27.9 16.1-38.3 27.8-10.4 11.7-16.9 28-13.1 43.1 1.4 5.6 4.2 10.7 8 15h62.2c-3.9-6.6-7.2-13.4-9.2-20.8 0-.2-.1-.3-.1-.5-13.5-6.8-26.6-8.4-32.6-16.3-12.7-16.7 20.4-30.2 42.9-38.2 12-4.3 32.1-10.7 44.8-11.7 11.1-.9 22.9 1.6 31.5 8.4V214c-16.1-4.1-33.5-2.9-48.8 3.5-5.6 2.3-12.1 5.3-17.2 2-4.8-3.1-5.1-10.2-3.2-15.6 4.9-13.9 21.7-22.2 35.7-17.6 10.2 3.4 17.7 12.1 26.7 17.9 2.2 1.4 4.5 2.6 6.9 3.6v-12.3c-5-2.6-9.6-6.2-14.1-9.6-6.1-4.7-12.6-9.4-20.1-11.7z"/><linearGradient id="p" gradientUnits="userSpaceOnUse" x1="246.983" y1="116.137" x2="308.379" y2="177.533"><stop offset=".015" stop-color="#85a4fb"/><stop offset=".995" stop-color="#698add"/></linearGradient><path fill="url(#p)" d="M271.7 133.6c-7.5-1-15.3-2-22.9-2.3-6-.2-11.9-.1-17.7.7 2.3 5.8 3.9 11.9 4.7 18.3 6.1.1 12.2 1.1 18 2.8 13.2 3.8 25.4 10.5 38.4 15.2 6.6 2.4 13.6 4.2 20.6 4.9v-36.7c-13.6 1-27.6-1-41.1-2.9z"/><linearGradient id="q" gradientUnits="userSpaceOnUse" x1="223.036" y1="108.499" x2="312.727" y2="108.499"><stop offset="0" stop-color="#76c0c4"/><stop offset="1" stop-color="#9bdaf5"/></linearGradient><path fill="url(#q)" d="M296.2 86.6c-19-4-38.9-.5-56.9 6.6h-.1c-3.6 8.9-9.1 17-16.1 23.6 3.2 4.7 5.9 9.8 8 15.1 5.8-.8 11.7-.9 17.7-.7 16.2-7.9 31.5-20.1 49.4-22 4.9-.5 9.8-.2 14.6.9V91.6c-5.5-2-11-3.8-16.6-5z"/><linearGradient id="r" gradientUnits="userSpaceOnUse" x1="248.738" y1="122.905" x2="312.727" y2="122.905"><stop offset="0" stop-color="#64a9c4"/><stop offset="1" stop-color="#9bdaf5"/></linearGradient><path fill="url(#r)" d="M298.1 109.3c-17.9 1.9-33.2 14.1-49.4 22 7.7.3 15.4 1.2 22.9 2.3 13.5 1.9 27.6 3.9 41.1 2.9v-26.3c-4.8-1.1-9.7-1.4-14.6-.9z"/><linearGradient id="s" gradientUnits="userSpaceOnUse" x1="100.442" y1="341.497" x2="290.741" y2="151.198"><stop offset="0" stop-color="#df6639"/><stop offset=".5" stop-color="#a38bdd"/><stop offset=".591" stop-color="#a094e5"/><stop offset=".836" stop-color="#99a9f5"/><stop offset="1" stop-color="#96b0fb"/></linearGradient><path fill="url(#s)" d="M253.8 153.1c-5.8-1.7-11.9-2.7-18-2.8.4 3.2.6 6.4.6 9.7 0 37.1-26.4 68-61.5 74.9-7.1 5.4-13.2 11.7-17.1 19.7-2.3 4.9-3.8 10.2-6.8 14.7-5.1 7.6-14.2 11.8-23.1 13.7-9 2-18.3 2.1-27.3 3.8-9 1.7-18.2 5.2-24 12.3-3.1 3.8-4.8 8.7-4.9 13.6h101.5c-3.8-4.3-6.6-9.4-8-15-3.8-15.2 2.7-31.4 13.1-43.1 10.4-11.7 26.1-18 38.3-27.8 15.8-12.7 16.4-35.4 32.7-47.5 8.3-6.1 19.5-8.1 29.3-5.1 7.5 2.2 13.9 7 20.1 11.8 4.5 3.5 9.1 7 14.1 9.6v-22.4c-7-.6-14-2.5-20.6-4.9-13-4.7-25.2-11.3-38.4-15.2z"/><linearGradient id="t" gradientUnits="userSpaceOnUse" x1="7.273" y1="244.84" x2="123.017" y2="244.84"><stop offset="0" stop-color="#e1763b"/><stop offset=".982" stop-color="#f6e150"/></linearGradient><path fill="url(#t)" d="M73 249.3c1.5-8.5 1.2-18.7 8.1-23.8 7.1-5.3 16.9-1.8 25.5.1 5.4 1.2 10.9 1.6 16.3 1.3-18.7-10.4-32.6-28.4-37.5-49.9-.8 3.1-1.1 6.3-2.4 9.2-5.2 11.2-22.4 12.8-27 24.3-2.6 6.4-.2 13.6-.2 20.5 0 8.7-4.1 16.9-9.6 23.7-8.7 10.6-22.4 21.8-39.1 28v30.2H44c1.6-8.1 5.2-16.1 9.4-23.2 7.5-13.2 17-25.6 19.6-40.4z"/><linearGradient id="u" gradientUnits="userSpaceOnUse" x1="43.955" y1="267.705" x2="174.897" y2="267.705"><stop offset="0" stop-color="#e1763b"/><stop offset=".982" stop-color="#f6e150"/></linearGradient><path fill="url(#u)" d="M100.6 286.8c9-1.7 18.3-1.8 27.3-3.8 9-2 18-6.1 23.1-13.7 3-4.5 4.4-9.8 6.8-14.7 3.9-8 10-14.4 17.1-19.7-4.8 1-9.8 1.5-14.9 1.5-3.8 0-7.6-.3-11.3-.8-4.5 13.8-15.8 25.5-29.8 29.9-6.8 2.1-14.4 2.6-20.8-.6-6.3-3.3-10.6-11-8.3-17.7 2.1-6.4 9.1-9.9 15.7-10.8 6.6-.9 13.4.2 20.1-.1 4.1-.2 8.3-1.2 11.8-3.2-5.1-1.6-9.9-3.6-14.4-6.2-5.5.3-11-.1-16.3-1.3-8.6-1.9-18.5-5.3-25.5-.1-6.9 5.1-6.7 15.3-8.1 23.8-2.6 14.8-12.1 27.3-19.6 40.2-4.2 7.1-7.8 15.1-9.4 23.2h27.7c.1-4.8 1.8-9.8 4.9-13.6 5.7-7.1 14.8-10.6 23.9-12.3z"/><path fill="#BB99CA" d="M226.1 291.5c0 .2.1.3.1.5 2 7.4 5.3 14.2 9.2 20.8h14.5c-7-11-15.5-17.1-23.8-21.3z"/><linearGradient id="v" gradientUnits="userSpaceOnUse" x1="224.337" y1="272.324" x2="312.727" y2="272.324"><stop offset="0" stop-color="#dac1db"/><stop offset="1" stop-color="#a38bdd"/></linearGradient><path fill="url(#v)" d="M255.4 240.1c-8.6 3.5-17.4 7.6-23.3 14.8-8.2 9.9-9.3 24.2-6 36.6 8.3 4.2 16.8 10.4 23.9 21.3h62.8V240c-6.4-5.2-15.1-7.9-23.5-8-11.8-.3-23.1 3.7-33.9 8.1z"/><linearGradient id="w" gradientUnits="userSpaceOnUse" x1="190.597" y1="258.265" x2="312.727" y2="258.265"><stop offset="0" stop-color="#c4c1df"/><stop offset="1" stop-color="#a38bdd"/></linearGradient><path fill="url(#w)" d="M281.2 225.2c-12.7 1-32.8 7.4-44.8 11.7-22.5 8-55.7 21.5-42.9 38.2 6 7.9 19.1 9.5 32.6 16.3-3.3-12.4-2.2-26.7 6-36.6 5.9-7.2 14.7-11.3 23.3-14.8 10.8-4.4 22.1-8.3 33.8-8.1 8.4.1 17.1 2.8 23.5 8v-6.4c-8.6-6.7-20.4-9.1-31.5-8.3z"/><linearGradient id="x" gradientUnits="userSpaceOnUse" x1="124.392" y1="41.637" x2="189.112" y2="41.637"><stop offset="0" stop-color="#deff85"/><stop offset=".989" stop-color="#86dece"/></linearGradient><path fill="url(#x)" d="M185.9 39.9c-9.3.8-17.5 5.1-25.9 1-6.5-3.2-12-9.5-19.2-9.4-5.8.1-10.8 4.4-16.4 5.6 5.4 6.5 12.4 11.8 20.5 13.8 9.9 2.4 20.4-.3 29.7-4.2 4.9-2.1 9.6-4.5 14.4-6.8-1.1-.1-2.2-.1-3.1 0z"/><linearGradient id="y" gradientUnits="userSpaceOnUse" x1="98.182" y1="49.047" x2="215.162" y2="49.047"><stop offset="0" stop-color="#d8ff71"/><stop offset=".997" stop-color="#9dffff"/></linearGradient><path fill="url(#y)" d="M144.9 50.9c-8.2-2-15.2-7.3-20.5-13.8-.8.2-1.5.3-2.3.3-3.8.2-7.5-1.3-11.2-2.2-9.5-2.3-15.8 3.7-11.1 9.2 1.6 1.9 4.3 2.6 6.8 2.5 2.5-.1 5-.7 7.5-.5 10.6.5 16.7 12.9 26.8 16 9.4 2.9 20.2-.4 28.2-6.1 18.5-13.1 40.4-3.8 44.9-6.3 6.4-3.6-14-9.5-24.8-10.1-4.8 2.3-9.5 4.7-14.4 6.8-9.5 3.9-20 6.6-29.9 4.2z"/><linearGradient id="z" gradientUnits="userSpaceOnUse" x1="195.473" y1="70.936" x2="244.685" y2="70.936"><stop offset=".003" stop-color="#b4ffe5"/><stop offset=".994" stop-color="#9bdaf5"/></linearGradient><path fill="url(#z)" d="M198.1 83.6c9.4 2.6 30.9-1.9 45.8-9.6.7-5.5 1.1-11.2.7-16.6-10.1 9.1-26.4 20.8-45 21.5-4.2.3-6 3.5-1.5 4.7z"/><linearGradient id="A" gradientUnits="userSpaceOnUse" x1="243.833" y1="55.191" x2="311.63" y2="55.191"><stop offset=".003" stop-color="#c0ebfa"/><stop offset=".994" stop-color="#9bdaf5"/></linearGradient><path fill="url(#A)" d="M243.8 74.1c1.7-.9 3.4-1.8 4.9-2.8 15.2-9.8 24.6-10.7 46.8-3.2 30 10 12.8-20.6-9.3-30.2-10.1-4.4-23.7 1.1-33.8 11.9-1.9 2-4.6 4.8-8 7.8.5 5.3.2 11-.6 16.5z"/><g fill="#FFF"><path d="M0 0v320h320V0H0zm59.6 51.6c0 2-1.6 3.6-3.6 3.6s-3.6-1.6-3.6-3.6S54 48 56 48s3.6 1.6 3.6 3.6zm-6.5-31.2c1.2 0 2.2 1 2.2 2.2 0 1.2-1 2.2-2.2 2.2-1.2 0-2.2-1-2.2-2.2 0-1.3 1-2.2 2.2-2.2zM12.4 97.5c-1.2 0-2.2-1-2.2-2.2s1-2.2 2.2-2.2 2.2 1 2.2 2.2-1 2.2-2.2 2.2zM160 290.9c-72.3 0-130.9-58.6-130.9-130.9 0-6.5-1.7-19-4.9-25.2-4.8-9.2-2.5-11.9 1.4-15.3 3.9-3.4 9.4-7.6 11-19.6C38 89.5 47.7 80.4 54.1 73.5c-1.5-6 3.8-15.4 10.3-10 5.4-.3 10.1-14.2 11.8-23.2 12.9-70.4 31.2 1.2 56.8-15.9 12.9-8.6 22.1 4.7 27 4.7 72.3 0 130.9 58.6 130.9 130.9S232.3 290.9 160 290.9z"/><circle cx="160" cy="160" r="76.4"/></g><path d="M127.6 200.1h-.6v-6.3h.9l2.1 5.5 2-5.5h.9v6.3h-.6v-5.6l-2.1 5.6h-.6l-2.1-5.6v5.6zm10.5-2.1h-3.5c0 .3.1.6.2.9.1.3.3.5.5.6.2.2.5.2.8.2.3 0 .6-.1.9-.3s.4-.4.5-.8h.6c-.3 1-1 1.5-2 1.5-.5 0-.9-.1-1.2-.3-.3-.2-.5-.5-.7-.8-.1-.4-.2-.8-.2-1.2 0-.3 0-.6.1-.9.1-.3.2-.5.4-.8.2-.2.4-.4.7-.5.3-.1.5-.2.9-.2s.6.1.8.2c.2.1.5.3.6.5s.3.5.4.8c.1.3.2.7.2 1.1zm-3.5-.5h3c0-.3-.1-.6-.2-.8-.1-.2-.3-.4-.5-.6-.2-.1-.5-.2-.8-.2-.3 0-.6.1-.8.2-.2.1-.4.3-.5.6s-.2.5-.2.8zm8-1.2v-2.5h.5v6.3h-.5v-.8c-.1.3-.4.5-.7.7-.3.2-.6.2-.9.2-.5 0-.8-.1-1.2-.3-.3-.2-.5-.5-.7-.8-.1-.4-.2-.8-.2-1.2 0-.3 0-.6.1-.9.1-.3.2-.5.4-.8.2-.2.4-.4.6-.5s.5-.2.9-.2c.2 0 .4 0 .6.1l.6.3c.2.1.4.2.5.4zm0 1.5c0-.3-.1-.7-.2-.9s-.3-.5-.5-.7-.5-.3-.8-.3c-.3 0-.6.1-.9.3-.2.2-.4.4-.5.7s-.2.7-.2 1.1c0 .4.1.7.2 1s.3.5.6.6.5.2.8.2c.3 0 .6-.1.8-.2.2-.2.4-.4.5-.7.1-.4.2-.7.2-1.1zm2.5-3.2h-.6v-.8h.6v.8zm-.1 5.5h-.5v-4.5h.5v4.5zm5.1-3.1h-.5c-.1-.3-.3-.6-.5-.8-.2-.2-.5-.3-.9-.3-.3 0-.6.1-.8.3-.2.2-.4.4-.5.7s-.2.6-.2.9c0 .5.1 1 .4 1.3.3.4.6.6 1.1.6.4 0 .7-.1.9-.3.2-.2.4-.5.5-.9h.6c-.1.5-.3.9-.6 1.2-.3.3-.8.4-1.3.4-.3 0-.7-.1-.9-.2-.3-.1-.5-.3-.7-.5s-.3-.5-.4-.8c-.1-.3-.1-.6-.1-.9 0-.3 0-.6.1-.9.1-.3.2-.5.4-.8.2-.2.4-.4.7-.5.3-.1.6-.2.9-.2.3 0 .7.1.9.2.3.1.5.3.6.5.1.4.2.7.3 1zm2.5.6l.7-.1c.3 0 .5-.1.7-.1.1-.1.2-.2.2-.5s-.1-.5-.3-.7c-.2-.2-.5-.2-.9-.2s-.7.1-.9.2-.4.4-.4.8h-.5c0-.3.1-.6.3-.8s.4-.4.7-.5.6-.2.9-.2c.5 0 .9.1 1.2.3.3.2.4.6.4 1.1v2.5c0 .1 0 .3.1.3s.1.1.2.1.2 0 .3-.1v.4c-.2.1-.3.1-.4.1h-.2c-.2 0-.3-.1-.3-.2s-.1-.3-.1-.5c-.4.5-1 .8-1.7.8-.4 0-.8-.1-1.1-.3-.3-.2-.4-.5-.4-1-.1-.8.4-1.3 1.5-1.4zm1.6.8v-.7c-.3.1-.7.2-1.4.3-.8.1-1.3.4-1.3 1 0 .3.1.5.3.6s.4.2.7.2c.5 0 .8-.1 1.2-.3s.5-.6.5-1.1zm2.5 1.7h-.5v-6.3h.5v6.3zm7.3-6.3l1.4 5.4 1.4-5.4h.6l-1.6 6.3h-.7l-1.5-5.6-1.5 5.6h-.7l-1.6-6.3h.6l1.4 5.4 1.5-5.4h.7zm8 4.2h-3.5c0 .3.1.6.2.9.1.3.3.5.5.6.2.2.5.2.8.2.3 0 .6-.1.9-.3s.4-.4.5-.8h.6c-.3 1-1 1.5-2 1.5-.5 0-.9-.1-1.2-.3-.3-.2-.5-.5-.7-.8-.1-.4-.2-.8-.2-1.2 0-.3 0-.6.1-.9.1-.3.2-.5.4-.8.2-.2.4-.4.7-.5.3-.1.5-.2.9-.2s.6.1.8.2c.2.1.5.3.6.5s.3.5.4.8c.2.3.2.7.2 1.1zm-3.5-.5h3c0-.3-.1-.6-.2-.8-.1-.2-.3-.4-.5-.6-.2-.1-.5-.2-.8-.2-.3 0-.6.1-.8.2-.2.1-.4.3-.5.6s-.2.5-.2.8zm5.1 2.6h-.5v-6.3h.5v6.3zm2 0h-.5v-6.3h.5v6.3zm1.8-2.4v2.4h-.5v-4.5h.5v.6c.2-.2.5-.4.7-.6.2-.1.5-.2.8-.2.6 0 1.1.2 1.4.6.1.1.2.3.2.5v3.6h-.5v-2.9c0-.4-.1-.7-.3-.9-.2-.2-.5-.3-.9-.3-.3 0-.6.1-.8.3-.2.2-.4.4-.5.6 0 .1-.1.4-.1.8zm8.2.3h-3.5c0 .3.1.6.2.9.1.3.3.5.5.6.2.2.5.2.8.2.3 0 .6-.1.9-.3s.4-.4.5-.8h.6c-.3 1-1 1.5-2 1.5-.5 0-.9-.1-1.2-.3-.3-.2-.5-.5-.7-.8-.1-.4-.2-.8-.2-1.2 0-.3 0-.6.1-.9.1-.3.2-.5.4-.8.2-.2.4-.4.7-.5.3-.1.5-.2.9-.2s.6.1.8.2c.2.1.5.3.6.5s.3.5.4.8c.2.3.2.7.2 1.1zm-3.5-.5h3c0-.3-.1-.6-.2-.8-.1-.2-.3-.4-.5-.6-.2-.1-.5-.2-.8-.2-.3 0-.6.1-.8.2-.2.1-.4.3-.5.6s-.2.5-.2.8zm5-.8c0 .3.1.5.3.6s.6.2 1.1.3c.5.1.9.3 1.1.5.3.2.4.5.4.9 0 .3-.1.5-.2.7-.2.2-.4.3-.7.4s-.6.2-1 .2c-.3 0-.6-.1-.9-.2-.3-.1-.5-.3-.6-.5-.1-.2-.2-.5-.2-.8h.5c.1.4.2.7.4.8.2.2.5.2.9.2s.6-.1.8-.2c.2-.2.3-.4.3-.6 0-.3-.1-.5-.3-.6s-.6-.2-1.1-.3c-.5-.1-.9-.2-1.1-.4-.3-.2-.4-.5-.4-.9s.1-.7.4-.9c.3-.2.7-.4 1.2-.4 1 0 1.6.5 1.7 1.4h-.5c-.1-.6-.5-1-1.2-1-.3 0-.6.1-.8.2-.1.2-.1.4-.1.6zm4.3 0c0 .3.1.5.3.6s.6.2 1.1.3c.5.1.9.3 1.1.5.3.2.4.5.4.9 0 .3-.1.5-.2.7-.2.2-.4.3-.7.4s-.6.2-1 .2c-.3 0-.6-.1-.9-.2-.3-.1-.5-.3-.6-.5-.1-.2-.2-.5-.2-.8h.5c.1.4.2.7.4.8.2.2.5.2.9.2s.6-.1.8-.2c.2-.2.3-.4.3-.6 0-.3-.1-.5-.3-.6s-.6-.2-1.1-.3c-.5-.1-.9-.2-1.1-.4-.3-.2-.4-.5-.4-.9s.1-.7.4-.9c.3-.2.7-.4 1.2-.4 1 0 1.6.5 1.7 1.4h-.5c-.1-.6-.5-1-1.2-1-.3 0-.6.1-.8.2 0 .2-.1.4-.1.6z" fill="#282828"/><path fill="#212124" d="M159.5 138.4c-3.3 0-6 2.7-6 6 0 .6.1 1.1.2 1.6h3.3c-.3-.5-.5-1-.5-1.6 0-1.7 1.3-3 3-3s3 1.3 3 3c0 .6-.2 1.2-.5 1.6h3.3c.1-.5.2-1.1.2-1.6-.1-3.3-2.7-6-6-6m18.7 0l1 3h3v4.6h3v-4.6h3l1-3h-11zm-7.6 0L168 146h3l1.6-4.6 1.6 4.6h3l-2.5-7.6h-4.1zM133 146h6l.9-2.6H136v-2.1h4.9l1-3H133v7.7zm11 0h3v-7.6h-3v7.6z"/><path fill="#72B8E4" d="M160 181c19.3 0 34.9-15.6 34.9-34.9h-69.8c0 19.2 15.6 34.9 34.9 34.9z"/><path d="M143.4 163.2h.8c0 .2 0 .3.1.4.1.2.4.2.7.2.2 0 .4 0 .6-.1.2-.1.3-.2.3-.4 0-.1 0-.2-.1-.3-.1-.1-.3-.1-.6-.2s-.5-.1-.8-.2c-.3-.1-.4-.1-.6-.2-.1-.1-.2-.2-.3-.4-.1-.2-.1-.3-.1-.5 0-.3.1-.6.3-.8.3-.3.7-.4 1.2-.4s.9.2 1.2.5c.2.2.3.5.3.8h-.8c0-.2-.1-.3-.1-.4-.1-.2-.4-.2-.7-.2-.2 0-.3 0-.5.1s-.2.2-.2.4c0 .1 0 .2.1.3.1 0 .1.1.3.1l1 .2c.3.1.6.2.7.3.2.2.3.4.3.7 0 .5-.2.9-.6 1.1-.3.1-.6.2-.9.2-.6 0-1.1-.2-1.4-.5-.1-.1-.2-.4-.2-.7zm7.9-2.1v3.3h-.8v-3.3h-1.2v-.7h3.2v.7h-1.2zm7.5-.7v2.6c0 .5-.1.9-.4 1.1-.3.3-.7.4-1.2.4-.4 0-.8-.1-1-.3-.3-.2-.5-.6-.5-1.2v-2.6h.8v2.6c0 .3.1.5.2.6.1.1.3.2.5.2.3 0 .5-.1.6-.2.1-.1.2-.3.2-.6v-2.6h.8zm3.4 4v-4h1.7c.6 0 1 .2 1.3.7.2.3.3.7.3 1.2s-.1 1-.3 1.4c-.3.5-.7.7-1.3.7h-1.7zm.9-3.3v2.6h.8c.3 0 .5-.1.7-.4.1-.2.2-.5.2-.9 0-.5-.1-.9-.3-1.1-.1-.1-.3-.2-.6-.2h-.8zm6.5-.7v4h-.8v-4h.8zm3.2 2c0-.6.1-1 .4-1.4.2-.3.5-.5.8-.6.2-.1.5-.1.7-.1.3 0 .5 0 .7.1.3.1.6.3.8.6.3.4.4.8.4 1.4 0 .6-.1 1-.4 1.4-.2.3-.5.5-.8.6-.2.1-.5.1-.7.1-.3 0-.5 0-.7-.1-.3-.1-.6-.3-.8-.6-.3-.4-.4-.8-.4-1.4zm.8 0c0 .5.1.9.4 1.1.2.2.4.3.7.3.3 0 .5-.1.7-.3.2-.2.4-.6.4-1.1 0-.5-.1-.9-.4-1.1-.2-.2-.4-.3-.7-.3-.3 0-.5.1-.7.3-.2.2-.4.6-.4 1.1z" fill="#FFF"/><image overflow="visible" width="108" height="10" xlink:href="661C32C1F3B0FB77.png" transform="translate(128.325 146.05) scale(.5664)"/></svg>