<?xml version="1.0" encoding="utf-8"?>
<!-- Generator: Adobe Illustrator 18.0.0, SVG Export Plug-In . SVG Version: 6.00 Build 0)  -->
<!DOCTYPE svg PUBLIC "-//W3C//DTD SVG 1.1//EN" "http://www.w3.org/Graphics/SVG/1.1/DTD/svg11.dtd">
<svg version="1.1" id="Слой_1" xmlns="http://www.w3.org/2000/svg" xmlns:xlink="http://www.w3.org/1999/xlink" x="0px" y="0px"
	 viewBox="0 0 320 320" enable-background="new 0 0 320 320" xml:space="preserve">
<g id="color_circle">
	<g>
		<linearGradient id="SVGID_1_" gradientUnits="userSpaceOnUse" x1="7.2727" y1="80.9128" x2="134.058" y2="80.9128">
			<stop  offset="8.105469e-03" style="stop-color:#E6FF63"/>
			<stop  offset="0.99" style="stop-color:#CDDB34"/>
		</linearGradient>
		<path fill="url(#SVGID_1_)" d="M80.7,95.5c8.8,1.6,16.5,6.8,22.5,13.5c8.3-9.3,18.9-16.5,30.9-20.8c-1.9-2.4-3.8-4.8-5.8-7.2
			c-2.8-3.6-6.8-7.5-11.2-6.3c-2.6,0.7-4.4,3.1-7,3.7c-3.9,1-7.7-2.1-9.3-5.8c-1.6-3.6-1.8-7.7-3-11.6c-1.2-3.8-3.9-7.7-7.8-8.1
			c-4.7-0.6-8.4,3.7-11.3,7.4c-18,23-42.5,33.5-71.3,40v8.6c15.7-3.7,31.5-7.3,47.2-11C63.1,95.9,72,93.9,80.7,95.5z"/>
		<linearGradient id="SVGID_2_" gradientUnits="userSpaceOnUse" x1="7.2727" y1="116.1097" x2="103.1729" y2="116.1097">
			<stop  offset="0" style="stop-color:#CDDB34"/>
			<stop  offset="0.9726" style="stop-color:#98AF39"/>
		</linearGradient>
		<path fill="url(#SVGID_2_)" d="M46.8,116.3c11.5,2.9,20.9,10.6,29.7,18.7c3.6,0.3,7.2,1,10.6,2.3c3.3-10.6,8.9-20.3,16.1-28.3
			c-6-6.8-13.7-11.9-22.5-13.5c-8.7-1.6-17.6,0.4-26.2,2.4c-15.7,3.7-31.5,7.3-47.2,11v12.9c2.6-1.2,5.2-2.2,7.9-3.1
			C25.3,115.1,36.4,113.6,46.8,116.3z"/>
		<linearGradient id="SVGID_3_" gradientUnits="userSpaceOnUse" x1="7.2727" y1="159.4411" x2="87.0599" y2="159.4411">
			<stop  offset="0" style="stop-color:#98AF39"/>
			<stop  offset="1" style="stop-color:#CDDB34"/>
		</linearGradient>
		<path fill="url(#SVGID_3_)" d="M76.5,135c-5.5-0.5-11.2-0.1-16.6,0.8c-10.3,1.6-20.4,4.7-30.8,5.7c-7.3,0.7-15,0.2-21.8-2.4V174
			c14.2,11.9,33.8,13.8,47.4,2.5c4.3-3.6,7.6-8.3,11.2-12.7c3.5-4.4,7.6-8.7,12.8-10.8c1.7-0.7,3.5-1.1,5.4-1.1
			c0.5-5,1.5-9.9,3-14.6C83.7,136.1,80.1,135.3,76.5,135z"/>
		<linearGradient id="SVGID_4_" gradientUnits="userSpaceOnUse" x1="7.2727" y1="53.7731" x2="240.261" y2="53.7731">
			<stop  offset="0" style="stop-color:#B3EF7F"/>
			<stop  offset="0.2498" style="stop-color:#B1EE82"/>
			<stop  offset="0.4398" style="stop-color:#ACEA8C"/>
			<stop  offset="0.61" style="stop-color:#A2E39C"/>
			<stop  offset="0.7687" style="stop-color:#95DAB3"/>
			<stop  offset="0.9179" style="stop-color:#84CED0"/>
			<stop  offset="1" style="stop-color:#79C6E4"/>
		</linearGradient>
		<path fill="url(#SVGID_4_)" d="M78.6,60.3c2.9-3.7,6.6-8,11.3-7.4c4,0.5,6.7,4.3,7.8,8.1c1.2,3.8,1.4,7.9,3,11.6
			c1.6,3.6,5.5,6.8,9.3,5.8c2.6-0.7,4.4-3.1,7-3.7c4.4-1.2,8.4,2.8,11.2,6.3c2,2.5,3.9,4.9,5.8,7.2c8.1-2.9,16.8-4.5,25.9-4.5
			c2.3,0,4.5,0.1,6.7,0.3c2.5-12,13.1-22.3,25.4-23.6c7.3-0.8,14.7,1.3,21.9,0.1c10.6-1.7,18.9-9.8,26.3-17.7
			c-1.9-3.2-4.5-5.8-7.9-7.6c-9-4.8-20-4-29.7-0.8c-4.6,1.5-9.1,3.5-13.5,5.6c10.9,0.5,31.2,6.4,24.8,10.1
			c-4.5,2.6-26.4-6.8-44.9,6.3c-8,5.7-18.8,9-28.2,6.1c-10.1-3.1-16.2-15.5-26.8-16c-2.5-0.1-5,0.5-7.5,0.5
			c-2.5,0.1-5.2-0.6-6.8-2.5c-4.7-5.5,1.6-11.5,11.1-9.2c3.7,0.9,7.4,2.3,11.2,2.2c0.8,0,1.5-0.1,2.3-0.3c-1-1.2-1.9-2.4-2.8-3.7
			c-5.5-8-9-17.1-12.5-26.1H81.4c3.8,5.8,7.3,11.9,8.2,18.7c1.2,8.3-2.7,17.9-10.6,20.5c-6.3,2.1-12.9-0.6-19.4-2.1
			c-14.1-3.3-29.5-0.5-41.5,7.6c-4,2.7-7.6,5.9-10.8,9.6v38.7C36.1,93.8,60.6,83.3,78.6,60.3z"/>
		<linearGradient id="SVGID_5_" gradientUnits="userSpaceOnUse" x1="7.2727" y1="128.3772" x2="76.4932" y2="128.3772">
			<stop  offset="8.105469e-03" style="stop-color:#E6FF63"/>
			<stop  offset="0.99" style="stop-color:#CDDB34"/>
		</linearGradient>
		<path fill="url(#SVGID_5_)" d="M29.1,141.5c10.4-1,20.5-4.1,30.8-5.7c5.5-0.9,11.1-1.3,16.6-0.8c-8.8-8.2-18.2-15.8-29.7-18.7
			c-10.4-2.7-21.5-1.2-31.6,2.3c-2.7,0.9-5.3,2-7.9,3.1v17.4C14.1,141.7,21.8,142.2,29.1,141.5z"/>
		<linearGradient id="SVGID_6_" gradientUnits="userSpaceOnUse" x1="109.1315" y1="25.0029" x2="261.4079" y2="25.0029">
			<stop  offset="1.033203e-02" style="stop-color:#7DD170"/>
			<stop  offset="1" style="stop-color:#679EFB"/>
		</linearGradient>
		<path fill="url(#SVGID_6_)" d="M124.4,37.1c5.6-1.2,10.6-5.5,16.4-5.6c7.2-0.1,12.7,6.2,19.2,9.4c8.4,4.1,16.6-0.2,25.9-1
			c0.9-0.1,2-0.1,3.2,0c4.4-2.1,8.9-4.1,13.5-5.6c9.7-3.1,20.7-4,29.7,0.8c3.5,1.9,6,4.5,7.9,7.6c0.3-0.4,0.7-0.8,1-1.1
			c6.4-7,13-14.1,16.9-22.8c1.7-3.6,2.8-7.6,3.2-11.6H109.1c3.4,9.1,7,18.2,12.5,26.1C122.5,34.7,123.4,35.9,124.4,37.1z"/>
		<linearGradient id="SVGID_7_" gradientUnits="userSpaceOnUse" x1="7.2727" y1="34.4181" x2="89.7825" y2="34.4181">
			<stop  offset="7.851562e-03" style="stop-color:#C3FFA3"/>
			<stop  offset="1" style="stop-color:#D8FF71"/>
		</linearGradient>
		<path fill="url(#SVGID_7_)" d="M18.1,51.9c12-8,27.4-10.8,41.5-7.6c6.4,1.5,13.1,4.2,19.4,2.1c8-2.6,11.8-12.2,10.6-20.5
			c-0.9-6.8-4.4-12.9-8.2-18.7H7.3v54.3C10.4,57.9,14,54.6,18.1,51.9z"/>
		<linearGradient id="SVGID_8_" gradientUnits="userSpaceOnUse" x1="89.2133" y1="250.0604" x2="148.7203" y2="250.0604">
			<stop  offset="0" style="stop-color:#E1763B"/>
			<stop  offset="0.9818" style="stop-color:#E5A327"/>
		</linearGradient>
		<path fill="url(#SVGID_8_)" d="M125.6,236.2c-6.7,0.4-13.4-0.7-20.1,0.1c-6.6,0.9-13.6,4.4-15.7,10.8c-2.3,6.7,2,14.4,8.3,17.7
			c6.3,3.3,14,2.8,20.8,0.6c13.9-4.4,25.3-16.1,29.8-29.9c-3.9-0.6-7.6-1.4-11.3-2.6C134,235,129.7,235.9,125.6,236.2z"/>
		<linearGradient id="SVGID_9_" gradientUnits="userSpaceOnUse" x1="166.7052" y1="74.2237" x2="244.4908" y2="74.2237">
			<stop  offset="0" style="stop-color:#72B8E4"/>
			<stop  offset="0.9897" style="stop-color:#6AA5DE"/>
		</linearGradient>
		<path fill="url(#SVGID_9_)" d="M243.8,74.1c-14.8,7.7-36.4,12.1-45.8,9.6c-4.4-1.2-2.7-4.4,1.5-4.6c18.6-0.7,34.8-12.4,45-21.5
			c-0.4-5.5-1.7-10.6-4.2-14.8c-7.4,8-15.6,16.1-26.3,17.7c-7.2,1.1-14.6-0.9-21.9-0.1c-12.3,1.3-22.8,11.6-25.4,23.6
			c18.3,1.6,34.7,9.6,47,21.8c8.2-4.7,16.6-9,25.4-12.4c1.3-3.3,2.4-6.7,3.1-10.2C242.9,80.3,243.4,77.2,243.8,74.1z"/>
		<linearGradient id="SVGID_10_" gradientUnits="userSpaceOnUse" x1="239.1429" y1="50.2849" x2="312.7273" y2="50.2849">
			<stop  offset="0" style="stop-color:#7CCAFC"/>
			<stop  offset="0.9785" style="stop-color:#698ADD"/>
		</linearGradient>
		<path fill="url(#SVGID_10_)" d="M241.3,41.6c-0.3,0.4-0.7,0.8-1,1.1c2.5,4.2,3.8,9.3,4.2,14.8c3.4-3.1,6.1-5.8,8-7.8
			c10.2-10.7,23.7-16.3,33.8-11.9c22.1,9.6,39.2,40.3,9.3,30.2c-22.2-7.4-31.7-6.5-46.8,3.2c-1.5,1-3.2,1.9-4.9,2.8
			c-0.4,3.1-1,6.2-1.6,9.1c-0.7,3.5-1.8,6.9-3.1,10.2c0,0,0.1,0,0.1,0c18-7.1,38-10.6,56.9-6.6c5.6,1.2,11.1,3,16.5,4.9V7.3h-51.3
			c-0.4,4-1.5,7.9-3.2,11.6C254.3,27.5,247.7,34.6,241.3,41.6z"/>
		<linearGradient id="SVGID_11_" gradientUnits="userSpaceOnUse" x1="7.2727" y1="189.9167" x2="84.0661" y2="189.9167">
			<stop  offset="0" style="stop-color:#E5A327"/>
			<stop  offset="0.9919" style="stop-color:#F6E150"/>
		</linearGradient>
		<path fill="url(#SVGID_11_)" d="M38.5,222.5c2.9-5.4,2.9-11.8,5.7-17.2c3.1-5.9,10-8.5,16.2-10.9s13-5.7,15.2-11.9
			c1.3-3.6,0.8-7.6,1.9-11.2c1-3.3,3.4-6,6.2-8c0-1.1-0.1-2.1-0.1-3.2c0-2.7,0.1-5.5,0.4-8.1c-1.8,0.1-3.7,0.5-5.4,1.1
			c-5.3,2.1-9.3,6.4-12.8,10.8c-3.5,4.4-6.8,9.1-11.2,12.7C41.1,187.8,21.4,186,7.3,174v47.2C21,226.4,32.9,232.7,38.5,222.5z"/>
		<linearGradient id="SVGID_12_" gradientUnits="userSpaceOnUse" x1="213.7018" y1="105.0941" x2="239.1429" y2="105.0941">
			<stop  offset="8.105469e-03" style="stop-color:#86DECE"/>
			<stop  offset="0.9971" style="stop-color:#C0EBFA"/>
		</linearGradient>
		<path fill="url(#SVGID_12_)" d="M223,116.9c7-6.6,12.6-14.7,16.1-23.6c-8.8,3.5-17.2,7.7-25.4,12.4
			C217.2,109.1,220.3,112.9,223,116.9z"/>
		<linearGradient id="SVGID_13_" gradientUnits="userSpaceOnUse" x1="242.3831" y1="203.0406" x2="312.7273" y2="203.0406">
			<stop  offset="0" style="stop-color:#A698DE"/>
			<stop  offset="3.194028e-02" style="stop-color:#A599DF"/>
			<stop  offset="0.6114" style="stop-color:#9AAAF4"/>
			<stop  offset="1" style="stop-color:#96B0FB"/>
		</linearGradient>
		<path fill="url(#SVGID_13_)" d="M279.1,186.3c-14-4.6-30.8,3.8-35.7,17.6c-1.9,5.4-1.6,12.5,3.2,15.6c5.1,3.3,11.6,0.3,17.2-2
			c15.3-6.4,32.7-7.6,48.8-3.5v-6.1c-2.4-1-4.7-2.2-6.9-3.6C296.8,198.5,289.4,189.7,279.1,186.3z"/>
		<linearGradient id="SVGID_14_" gradientUnits="userSpaceOnUse" x1="7.2727" y1="222.8737" x2="85.5282" y2="222.8737">
			<stop  offset="0" style="stop-color:#DF6639"/>
			<stop  offset="0.9818" style="stop-color:#E5A327"/>
		</linearGradient>
		<path fill="url(#SVGID_14_)" d="M46.3,254.5c5.5-6.7,9.5-15,9.6-23.7c0-6.9-2.4-14.1,0.2-20.5c4.6-11.4,21.8-13.1,27-24.3
			c1.3-2.9,1.7-6.1,2.4-9.2c-1-4.5-1.6-9.1-1.8-13.8c-2.8,2-5.2,4.7-6.2,8c-1.1,3.6-0.7,7.6-1.9,11.2c-2.2,6.3-9,9.6-15.2,11.9
			s-13.1,5-16.2,10.9c-2.9,5.4-2.8,11.9-5.7,17.2c-5.6,10.2-17.5,3.9-31.2-1.2v61.3C24,276.3,37.7,265.1,46.3,254.5z"/>
		<linearGradient id="SVGID_15_" gradientUnits="userSpaceOnUse" x1="164.0592" y1="242.7968" x2="312.7273" y2="242.7968">
			<stop  offset="0" style="stop-color:#A16E9C"/>
			<stop  offset="0.2642" style="stop-color:#9D7FBE"/>
			<stop  offset="0.5721" style="stop-color:#9A90DF"/>
			<stop  offset="0.8285" style="stop-color:#989AF4"/>
			<stop  offset="1" style="stop-color:#979EFB"/>
		</linearGradient>
		<path fill="url(#SVGID_15_)" d="M278.5,174.2c-9.9-2.9-21-1-29.3,5.1c-16.3,12.1-16.9,34.7-32.7,47.5
			c-12.2,9.8-27.9,16.1-38.3,27.8c-10.4,11.7-16.9,28-13.1,43.1c1.4,5.6,4.2,10.7,8,15h62.2c-3.9-6.6-7.2-13.4-9.2-20.8
			c0-0.2-0.1-0.3-0.1-0.5c-13.5-6.8-26.6-8.4-32.6-16.3c-12.7-16.7,20.4-30.2,42.9-38.2c12-4.3,32.1-10.7,44.8-11.7
			c11.1-0.9,22.9,1.6,31.5,8.4V214c-16.1-4.1-33.5-2.9-48.8,3.5c-5.6,2.3-12.1,5.3-17.2,2c-4.8-3.1-5.1-10.2-3.2-15.6
			c4.9-13.9,21.7-22.2,35.7-17.6c10.2,3.4,17.7,12.1,26.7,17.9c2.2,1.4,4.5,2.6,6.9,3.6v-12.3c-5-2.6-9.6-6.2-14.1-9.6
			C292.5,181.2,286,176.5,278.5,174.2z"/>
		<linearGradient id="SVGID_16_" gradientUnits="userSpaceOnUse" x1="246.9828" y1="116.1369" x2="308.3787" y2="177.5329">
			<stop  offset="1.533203e-02" style="stop-color:#85A4FB"/>
			<stop  offset="0.995" style="stop-color:#698ADD"/>
		</linearGradient>
		<path fill="url(#SVGID_16_)" d="M271.7,133.6c-7.5-1-15.3-2-22.9-2.3c-6-0.2-11.9-0.1-17.7,0.7c2.3,5.8,3.9,11.9,4.7,18.3
			c6.1,0.1,12.2,1.1,18,2.8c13.2,3.8,25.4,10.5,38.4,15.2c6.6,2.4,13.6,4.2,20.6,4.9v-36.7C299.2,137.5,285.2,135.5,271.7,133.6z"/>
		<linearGradient id="SVGID_17_" gradientUnits="userSpaceOnUse" x1="223.0355" y1="108.4991" x2="312.7273" y2="108.4991">
			<stop  offset="0" style="stop-color:#76C0C4"/>
			<stop  offset="1" style="stop-color:#9BDAF5"/>
		</linearGradient>
		<path fill="url(#SVGID_17_)" d="M296.2,86.6c-19-4-38.9-0.5-56.9,6.6c0,0-0.1,0-0.1,0c-3.6,8.9-9.1,17-16.1,23.6
			c3.2,4.7,5.9,9.8,8,15.1c5.8-0.8,11.7-0.9,17.7-0.7c16.2-7.9,31.5-20.1,49.4-22c4.9-0.5,9.8-0.2,14.6,0.9V91.6
			C307.3,89.6,301.8,87.8,296.2,86.6z"/>
		<linearGradient id="SVGID_18_" gradientUnits="userSpaceOnUse" x1="248.7385" y1="122.905" x2="312.7273" y2="122.905">
			<stop  offset="0" style="stop-color:#64A9C4"/>
			<stop  offset="1" style="stop-color:#9BDAF5"/>
		</linearGradient>
		<path fill="url(#SVGID_18_)" d="M298.1,109.3c-17.9,1.9-33.2,14.1-49.4,22c7.7,0.3,15.4,1.2,22.9,2.3c13.5,1.9,27.6,3.9,41.1,2.9
			v-26.3C307.9,109.1,303,108.8,298.1,109.3z"/>
		<linearGradient id="SVGID_19_" gradientUnits="userSpaceOnUse" x1="100.4423" y1="341.4967" x2="290.741" y2="151.198">
			<stop  offset="0" style="stop-color:#DF6639"/>
			<stop  offset="0.5" style="stop-color:#A38BDD"/>
			<stop  offset="0.5909" style="stop-color:#A094E5"/>
			<stop  offset="0.8358" style="stop-color:#99A9F5"/>
			<stop  offset="1" style="stop-color:#96B0FB"/>
		</linearGradient>
		<path fill="url(#SVGID_19_)" d="M253.8,153.1c-5.8-1.7-11.9-2.7-18-2.8c0.4,3.2,0.6,6.4,0.6,9.7c0,37.1-26.4,68-61.5,74.9
			c-7.1,5.4-13.2,11.7-17.1,19.7c-2.3,4.9-3.8,10.2-6.8,14.7c-5.1,7.6-14.2,11.8-23.1,13.7c-9,2-18.3,2.1-27.3,3.8
			c-9,1.7-18.2,5.2-24,12.3c-3.1,3.8-4.8,8.7-4.9,13.6h101.5c-3.8-4.3-6.6-9.4-8-15c-3.8-15.2,2.7-31.4,13.1-43.1
			c10.4-11.7,26.1-18,38.3-27.8c15.8-12.7,16.4-35.4,32.7-47.5c8.3-6.1,19.5-8.1,29.3-5.1c7.5,2.2,13.9,7,20.1,11.8
			c4.5,3.5,9.1,7,14.1,9.6v-22.4c-7-0.6-14-2.5-20.6-4.9C279.2,163.6,267,157,253.8,153.1z"/>
		<linearGradient id="SVGID_20_" gradientUnits="userSpaceOnUse" x1="7.2727" y1="244.8403" x2="123.017" y2="244.8403">
			<stop  offset="0" style="stop-color:#E1763B"/>
			<stop  offset="0.9818" style="stop-color:#F6E150"/>
		</linearGradient>
		<path fill="url(#SVGID_20_)" d="M73,249.3c1.5-8.5,1.2-18.7,8.1-23.8c7.1-5.3,16.9-1.8,25.5,0.1c5.4,1.2,10.9,1.6,16.3,1.3
			c-18.7-10.4-32.6-28.4-37.5-49.9c-0.8,3.1-1.1,6.3-2.4,9.2c-5.2,11.2-22.4,12.8-27,24.3c-2.6,6.4-0.2,13.6-0.2,20.5
			c0,8.7-4.1,16.9-9.6,23.7c-8.7,10.6-22.4,21.8-39.1,28v30.2H44c1.6-8.1,5.2-16.1,9.4-23.2C60.9,276.5,70.4,264.1,73,249.3z"/>
		<linearGradient id="SVGID_21_" gradientUnits="userSpaceOnUse" x1="43.9546" y1="267.7053" x2="174.8966" y2="267.7053">
			<stop  offset="0" style="stop-color:#E1763B"/>
			<stop  offset="0.9818" style="stop-color:#F6E150"/>
		</linearGradient>
		<path fill="url(#SVGID_21_)" d="M100.6,286.8c9-1.7,18.3-1.8,27.3-3.8c9-2,18-6.1,23.1-13.7c3-4.5,4.4-9.8,6.8-14.7
			c3.9-8,10-14.4,17.1-19.7c-4.8,1-9.8,1.5-14.9,1.5c-3.8,0-7.6-0.3-11.3-0.8c-4.5,13.8-15.8,25.5-29.8,29.9
			c-6.8,2.1-14.4,2.6-20.8-0.6c-6.3-3.3-10.6-11-8.3-17.7c2.1-6.4,9.1-9.9,15.7-10.8c6.6-0.9,13.4,0.2,20.1-0.1
			c4.1-0.2,8.3-1.2,11.8-3.2c-5.1-1.6-9.9-3.6-14.4-6.2c-5.5,0.3-11-0.1-16.3-1.3c-8.6-1.9-18.5-5.3-25.5-0.1
			c-6.9,5.1-6.7,15.3-8.1,23.8c-2.6,14.8-12.1,27.3-19.6,40.2c-4.2,7.1-7.8,15.1-9.4,23.2h27.7c0.1-4.8,1.8-9.8,4.9-13.6
			C82.4,292,91.5,288.5,100.6,286.8z"/>
		<path fill="#BB99CA" d="M226.1,291.5c0,0.2,0.1,0.3,0.1,0.5c2,7.4,5.3,14.2,9.2,20.8h14.5C242.9,301.8,234.4,295.7,226.1,291.5z"
			/>
		<linearGradient id="SVGID_22_" gradientUnits="userSpaceOnUse" x1="224.3373" y1="272.3235" x2="312.7273" y2="272.3235">
			<stop  offset="0" style="stop-color:#DAC1DB"/>
			<stop  offset="1" style="stop-color:#A38BDD"/>
		</linearGradient>
		<path fill="url(#SVGID_22_)" d="M255.4,240.1c-8.6,3.5-17.4,7.6-23.3,14.8c-8.2,9.9-9.3,24.2-6,36.6c8.3,4.2,16.8,10.4,23.9,21.3
			h62.8V240c-6.4-5.2-15.1-7.9-23.5-8C277.5,231.7,266.2,235.7,255.4,240.1z"/>
		<linearGradient id="SVGID_23_" gradientUnits="userSpaceOnUse" x1="190.5968" y1="258.2655" x2="312.7273" y2="258.2655">
			<stop  offset="0" style="stop-color:#C4C1DF"/>
			<stop  offset="1" style="stop-color:#A38BDD"/>
		</linearGradient>
		<path fill="url(#SVGID_23_)" d="M281.2,225.2c-12.7,1-32.8,7.4-44.8,11.7c-22.5,8-55.7,21.5-42.9,38.2c6,7.9,19.1,9.5,32.6,16.3
			c-3.3-12.4-2.2-26.7,6-36.6c5.9-7.2,14.7-11.3,23.3-14.8c10.8-4.4,22.1-8.3,33.8-8.1c8.4,0.1,17.1,2.8,23.5,8v-6.4
			C304.1,226.8,292.3,224.4,281.2,225.2z"/>
		<linearGradient id="SVGID_24_" gradientUnits="userSpaceOnUse" x1="124.3922" y1="41.6372" x2="189.1122" y2="41.6372">
			<stop  offset="0" style="stop-color:#DEFF85"/>
			<stop  offset="0.989" style="stop-color:#86DECE"/>
		</linearGradient>
		<path fill="url(#SVGID_24_)" d="M185.9,39.9c-9.3,0.8-17.5,5.1-25.9,1c-6.5-3.2-12-9.5-19.2-9.4c-5.8,0.1-10.8,4.4-16.4,5.6
			c5.4,6.5,12.4,11.8,20.5,13.8c9.9,2.4,20.4-0.3,29.7-4.2c4.9-2.1,9.6-4.5,14.4-6.8C187.9,39.8,186.8,39.8,185.9,39.9z"/>
		<linearGradient id="SVGID_25_" gradientUnits="userSpaceOnUse" x1="98.1818" y1="49.0469" x2="215.1616" y2="49.0469">
			<stop  offset="0" style="stop-color:#D8FF71"/>
			<stop  offset="0.9971" style="stop-color:#9DFFFF"/>
		</linearGradient>
		<path fill="url(#SVGID_25_)" d="M144.9,50.9c-8.2-2-15.2-7.3-20.5-13.8c-0.8,0.2-1.5,0.3-2.3,0.3c-3.8,0.2-7.5-1.3-11.2-2.2
			c-9.5-2.3-15.8,3.7-11.1,9.2c1.6,1.9,4.3,2.6,6.8,2.5c2.5-0.1,5-0.7,7.5-0.5c10.6,0.5,16.7,12.9,26.8,16
			c9.4,2.9,20.2-0.4,28.2-6.1c18.5-13.1,40.4-3.8,44.9-6.3c6.4-3.6-14-9.5-24.8-10.1c-4.8,2.3-9.5,4.7-14.4,6.8
			C165.3,50.6,154.8,53.3,144.9,50.9z"/>
		<linearGradient id="SVGID_26_" gradientUnits="userSpaceOnUse" x1="195.4728" y1="70.9361" x2="244.6853" y2="70.9361">
			<stop  offset="2.851563e-03" style="stop-color:#B4FFE5"/>
			<stop  offset="0.994" style="stop-color:#9BDAF5"/>
		</linearGradient>
		<path fill="url(#SVGID_26_)" d="M198.1,83.6c9.4,2.6,30.9-1.9,45.8-9.6c0.7-5.5,1.1-11.2,0.7-16.6c-10.1,9.1-26.4,20.8-45,21.5
			C195.4,79.2,193.6,82.4,198.1,83.6z"/>
		<linearGradient id="SVGID_27_" gradientUnits="userSpaceOnUse" x1="243.8328" y1="55.1905" x2="311.6297" y2="55.1905">
			<stop  offset="2.851563e-03" style="stop-color:#C0EBFA"/>
			<stop  offset="0.994" style="stop-color:#9BDAF5"/>
		</linearGradient>
		<path fill="url(#SVGID_27_)" d="M243.8,74.1c1.7-0.9,3.4-1.8,4.9-2.8c15.2-9.8,24.6-10.7,46.8-3.2c30,10,12.8-20.6-9.3-30.2
			c-10.1-4.4-23.7,1.1-33.8,11.9c-1.9,2-4.6,4.8-8,7.8C244.9,62.9,244.6,68.6,243.8,74.1z"/>
	</g>
	<g>
		<path fill="#FFFFFF" d="M0,0v320h320V0H0z M59.6,51.6c0,2-1.6,3.6-3.6,3.6s-3.6-1.6-3.6-3.6S54,48,56,48S59.6,49.6,59.6,51.6z
			 M53.1,20.4c1.2,0,2.2,1,2.2,2.2c0,1.2-1,2.2-2.2,2.2c-1.2,0-2.2-1-2.2-2.2C50.9,21.3,51.9,20.4,53.1,20.4z M12.4,97.5
			c-1.2,0-2.2-1-2.2-2.2s1-2.2,2.2-2.2s2.2,1,2.2,2.2S13.6,97.5,12.4,97.5z M160,290.9c-72.3,0-130.9-58.6-130.9-130.9
			c0-6.5-1.7-19-4.9-25.2c-4.8-9.2-2.5-11.9,1.4-15.3c3.9-3.4,9.4-7.6,11-19.6C38,89.5,47.7,80.4,54.1,73.5c-1.5-6,3.8-15.4,10.3-10
			c5.4-0.3,10.1-14.2,11.8-23.2c12.9-70.4,31.2,1.2,56.8-15.9c12.9-8.6,22.1,4.7,27,4.7c72.3,0,130.9,58.6,130.9,130.9
			S232.3,290.9,160,290.9z"/>
		<circle fill="#FFFFFF" cx="160" cy="160" r="76.4"/>
	</g>
	<g id="logo_5_">
		<g>
			<path fill="#282828" d="M127.6,200.1H127v-6.3h0.9l2.1,5.5h0l2-5.5h0.9v6.3h-0.6v-5.6h0l-2.1,5.6h-0.6l-2.1-5.6h0V200.1z"/>
			<path fill="#282828" d="M138.1,198h-3.5c0,0.3,0.1,0.6,0.2,0.9c0.1,0.3,0.3,0.5,0.5,0.6c0.2,0.2,0.5,0.2,0.8,0.2
				c0.3,0,0.6-0.1,0.9-0.3s0.4-0.4,0.5-0.8h0.6c-0.3,1-1,1.5-2,1.5c-0.5,0-0.9-0.1-1.2-0.3c-0.3-0.2-0.5-0.5-0.7-0.8
				c-0.1-0.4-0.2-0.8-0.2-1.2c0-0.3,0-0.6,0.1-0.9c0.1-0.3,0.2-0.5,0.4-0.8c0.2-0.2,0.4-0.4,0.7-0.5c0.3-0.1,0.5-0.2,0.9-0.2
				s0.6,0.1,0.8,0.2c0.2,0.1,0.5,0.3,0.6,0.5s0.3,0.5,0.4,0.8C138,197.2,138.1,197.6,138.1,198z M134.6,197.5h3
				c0-0.3-0.1-0.6-0.2-0.8c-0.1-0.2-0.3-0.4-0.5-0.6c-0.2-0.1-0.5-0.2-0.8-0.2c-0.3,0-0.6,0.1-0.8,0.2c-0.2,0.1-0.4,0.3-0.5,0.6
				S134.6,197.2,134.6,197.5z"/>
			<path fill="#282828" d="M142.6,196.3v-2.5h0.5v6.3h-0.5v-0.8h0c-0.1,0.3-0.4,0.5-0.7,0.7c-0.3,0.2-0.6,0.2-0.9,0.2
				c-0.5,0-0.8-0.1-1.2-0.3c-0.3-0.2-0.5-0.5-0.7-0.8c-0.1-0.4-0.2-0.8-0.2-1.2c0-0.3,0-0.6,0.1-0.9c0.1-0.3,0.2-0.5,0.4-0.8
				c0.2-0.2,0.4-0.4,0.6-0.5s0.5-0.2,0.9-0.2c0.2,0,0.4,0,0.6,0.1c0.2,0.1,0.4,0.2,0.6,0.3C142.3,196,142.5,196.1,142.6,196.3z
				 M142.6,197.8c0-0.3-0.1-0.7-0.2-0.9s-0.3-0.5-0.5-0.7s-0.5-0.3-0.8-0.3c-0.3,0-0.6,0.1-0.9,0.3c-0.2,0.2-0.4,0.4-0.5,0.7
				s-0.2,0.7-0.2,1.1c0,0.4,0.1,0.7,0.2,1s0.3,0.5,0.6,0.6s0.5,0.2,0.8,0.2c0.3,0,0.6-0.1,0.8-0.2c0.2-0.2,0.4-0.4,0.5-0.7
				C142.5,198.5,142.6,198.2,142.6,197.8z"/>
			<path fill="#282828" d="M145.1,194.6h-0.6v-0.8h0.6V194.6z M145,200.1h-0.5v-4.5h0.5V200.1z"/>
			<path fill="#282828" d="M150.1,197h-0.5c-0.1-0.3-0.3-0.6-0.5-0.8c-0.2-0.2-0.5-0.3-0.9-0.3c-0.3,0-0.6,0.1-0.8,0.3
				c-0.2,0.2-0.4,0.4-0.5,0.7s-0.2,0.6-0.2,0.9c0,0.5,0.1,1,0.4,1.3c0.3,0.4,0.6,0.6,1.1,0.6c0.4,0,0.7-0.1,0.9-0.3
				c0.2-0.2,0.4-0.5,0.5-0.9h0.6c-0.1,0.5-0.3,0.9-0.6,1.2c-0.3,0.3-0.8,0.4-1.3,0.4c-0.3,0-0.7-0.1-0.9-0.2
				c-0.3-0.1-0.5-0.3-0.7-0.5s-0.3-0.5-0.4-0.8c-0.1-0.3-0.1-0.6-0.1-0.9c0-0.3,0-0.6,0.1-0.9c0.1-0.3,0.2-0.5,0.4-0.8
				c0.2-0.2,0.4-0.4,0.7-0.5c0.3-0.1,0.6-0.2,0.9-0.2c0.3,0,0.7,0.1,0.9,0.2c0.3,0.1,0.5,0.3,0.6,0.5
				C149.9,196.4,150,196.7,150.1,197z"/>
			<path fill="#282828" d="M152.6,197.6l0.7-0.1c0.3,0,0.5-0.1,0.7-0.1c0.1-0.1,0.2-0.2,0.2-0.5c0-0.3-0.1-0.5-0.3-0.7
				c-0.2-0.2-0.5-0.2-0.9-0.2s-0.7,0.1-0.9,0.2s-0.4,0.4-0.4,0.8h-0.5c0-0.3,0.1-0.6,0.3-0.8s0.4-0.4,0.7-0.5s0.6-0.2,0.9-0.2
				c0.5,0,0.9,0.1,1.2,0.3c0.3,0.2,0.4,0.6,0.4,1.1v2.5c0,0.1,0,0.3,0.1,0.3s0.1,0.1,0.2,0.1c0.1,0,0.2,0,0.3-0.1v0.4
				c-0.2,0.1-0.3,0.1-0.4,0.1c-0.1,0-0.2,0-0.2,0c-0.2,0-0.3-0.1-0.3-0.2s-0.1-0.3-0.1-0.5c-0.4,0.5-1,0.8-1.7,0.8
				c-0.4,0-0.8-0.1-1.1-0.3c-0.3-0.2-0.4-0.5-0.4-1C151,198.2,151.5,197.7,152.6,197.6z M154.2,198.4v-0.7c-0.3,0.1-0.7,0.2-1.4,0.3
				c-0.8,0.1-1.3,0.4-1.3,1c0,0.3,0.1,0.5,0.3,0.6s0.4,0.2,0.7,0.2c0.5,0,0.8-0.1,1.2-0.3S154.2,198.9,154.2,198.4z"/>
			<path fill="#282828" d="M156.7,200.1h-0.5v-6.3h0.5V200.1z"/>
			<path fill="#282828" d="M164,193.8l1.4,5.4h0l1.4-5.4h0.6l-1.6,6.3h-0.7l-1.5-5.6h0l-1.5,5.6h-0.7l-1.6-6.3h0.6l1.4,5.4h0
				l1.5-5.4H164z"/>
			<path fill="#282828" d="M172,198h-3.5c0,0.3,0.1,0.6,0.2,0.9c0.1,0.3,0.3,0.5,0.5,0.6c0.2,0.2,0.5,0.2,0.8,0.2
				c0.3,0,0.6-0.1,0.9-0.3s0.4-0.4,0.5-0.8h0.6c-0.3,1-1,1.5-2,1.5c-0.5,0-0.9-0.1-1.2-0.3c-0.3-0.2-0.5-0.5-0.7-0.8
				c-0.1-0.4-0.2-0.8-0.2-1.2c0-0.3,0-0.6,0.1-0.9c0.1-0.3,0.2-0.5,0.4-0.8c0.2-0.2,0.4-0.4,0.7-0.5c0.3-0.1,0.5-0.2,0.9-0.2
				s0.6,0.1,0.8,0.2c0.2,0.1,0.5,0.3,0.6,0.5s0.3,0.5,0.4,0.8C172,197.2,172,197.6,172,198z M168.5,197.5h3c0-0.3-0.1-0.6-0.2-0.8
				c-0.1-0.2-0.3-0.4-0.5-0.6c-0.2-0.1-0.5-0.2-0.8-0.2c-0.3,0-0.6,0.1-0.8,0.2c-0.2,0.1-0.4,0.3-0.5,0.6S168.5,197.2,168.5,197.5z"
				/>
			<path fill="#282828" d="M173.6,200.1h-0.5v-6.3h0.5V200.1z"/>
			<path fill="#282828" d="M175.6,200.1h-0.5v-6.3h0.5V200.1z"/>
			<path fill="#282828" d="M177.4,197.7v2.4h-0.5v-4.5h0.5v0.6c0.2-0.2,0.5-0.4,0.7-0.6c0.2-0.1,0.5-0.2,0.8-0.2
				c0.6,0,1.1,0.2,1.4,0.6c0.1,0.1,0.2,0.3,0.2,0.5c0,0.2,0,0.3,0,0.6v3H180v-2.9c0-0.4-0.1-0.7-0.3-0.9c-0.2-0.2-0.5-0.3-0.9-0.3
				c-0.3,0-0.6,0.1-0.8,0.3c-0.2,0.2-0.4,0.4-0.5,0.6C177.5,197,177.4,197.3,177.4,197.7z"/>
			<path fill="#282828" d="M185.6,198h-3.5c0,0.3,0.1,0.6,0.2,0.9c0.1,0.3,0.3,0.5,0.5,0.6c0.2,0.2,0.5,0.2,0.8,0.2
				c0.3,0,0.6-0.1,0.9-0.3s0.4-0.4,0.5-0.8h0.6c-0.3,1-1,1.5-2,1.5c-0.5,0-0.9-0.1-1.2-0.3c-0.3-0.2-0.5-0.5-0.7-0.8
				c-0.1-0.4-0.2-0.8-0.2-1.2c0-0.3,0-0.6,0.1-0.9c0.1-0.3,0.2-0.5,0.4-0.8c0.2-0.2,0.4-0.4,0.7-0.5c0.3-0.1,0.5-0.2,0.9-0.2
				s0.6,0.1,0.8,0.2c0.2,0.1,0.5,0.3,0.6,0.5s0.3,0.5,0.4,0.8C185.6,197.2,185.6,197.6,185.6,198z M182.1,197.5h3
				c0-0.3-0.1-0.6-0.2-0.8c-0.1-0.2-0.3-0.4-0.5-0.6c-0.2-0.1-0.5-0.2-0.8-0.2c-0.3,0-0.6,0.1-0.8,0.2c-0.2,0.1-0.4,0.3-0.5,0.6
				S182.1,197.2,182.1,197.5z"/>
			<path fill="#282828" d="M187.1,196.7c0,0.3,0.1,0.5,0.3,0.6s0.6,0.2,1.1,0.3c0.5,0.1,0.9,0.3,1.1,0.5c0.3,0.2,0.4,0.5,0.4,0.9
				c0,0.3-0.1,0.5-0.2,0.7c-0.2,0.2-0.4,0.3-0.7,0.4s-0.6,0.2-1,0.2c-0.3,0-0.6-0.1-0.9-0.2c-0.3-0.1-0.5-0.3-0.6-0.5
				c-0.1-0.2-0.2-0.5-0.2-0.8h0.5c0.1,0.4,0.2,0.7,0.4,0.8c0.2,0.2,0.5,0.2,0.9,0.2c0.4,0,0.6-0.1,0.8-0.2c0.2-0.2,0.3-0.4,0.3-0.6
				c0-0.3-0.1-0.5-0.3-0.6s-0.6-0.2-1.1-0.3c-0.5-0.1-0.9-0.2-1.1-0.4c-0.3-0.2-0.4-0.5-0.4-0.9c0-0.4,0.1-0.7,0.4-0.9
				c0.3-0.2,0.7-0.4,1.2-0.4c1,0,1.6,0.5,1.7,1.4h-0.5c-0.1-0.6-0.5-1-1.2-1c-0.3,0-0.6,0.1-0.8,0.2
				C187.1,196.3,187.1,196.5,187.1,196.7z"/>
			<path fill="#282828" d="M191.4,196.7c0,0.3,0.1,0.5,0.3,0.6s0.6,0.2,1.1,0.3c0.5,0.1,0.9,0.3,1.1,0.5c0.3,0.2,0.4,0.5,0.4,0.9
				c0,0.3-0.1,0.5-0.2,0.7c-0.2,0.2-0.4,0.3-0.7,0.4s-0.6,0.2-1,0.2c-0.3,0-0.6-0.1-0.9-0.2c-0.3-0.1-0.5-0.3-0.6-0.5
				c-0.1-0.2-0.2-0.5-0.2-0.8h0.5c0.1,0.4,0.2,0.7,0.4,0.8c0.2,0.2,0.5,0.2,0.9,0.2c0.4,0,0.6-0.1,0.8-0.2c0.2-0.2,0.3-0.4,0.3-0.6
				c0-0.3-0.1-0.5-0.3-0.6s-0.6-0.2-1.1-0.3c-0.5-0.1-0.9-0.2-1.1-0.4c-0.3-0.2-0.4-0.5-0.4-0.9c0-0.4,0.1-0.7,0.4-0.9
				c0.3-0.2,0.7-0.4,1.2-0.4c1,0,1.6,0.5,1.7,1.4h-0.5c-0.1-0.6-0.5-1-1.2-1c-0.3,0-0.6,0.1-0.8,0.2
				C191.5,196.3,191.4,196.5,191.4,196.7z"/>
		</g>
		<g>
			<path fill="#212124" d="M159.5,138.4c-3.3,0-6,2.7-6,6c0,0.6,0.1,1.1,0.2,1.6h3.3c-0.3-0.5-0.5-1-0.5-1.6c0-1.7,1.3-3,3-3
				c1.7,0,3,1.3,3,3c0,0.6-0.2,1.2-0.5,1.6h3.3c0.1-0.5,0.2-1.1,0.2-1.6C165.4,141.1,162.8,138.4,159.5,138.4 M178.2,138.4l1,3h3
				v4.6h3v-4.6h3l1-3H178.2z M170.6,138.4L168,146h3l1.6-4.6l1.6,4.6h3l-2.5-7.6H170.6z M133,146h6l0.9-2.6H136v-2.1h4.9l1-3H133
				V146z M144,146h3v-7.6h-3V146z"/>
			<path fill="#72B8E4" d="M160,181c19.3,0,34.9-15.6,34.9-34.9h-69.8C125.1,165.3,140.7,181,160,181z"/>
			<g>
				<path fill="#FFFFFF" d="M143.4,163.2h0.8c0,0.2,0,0.3,0.1,0.4c0.1,0.2,0.4,0.2,0.7,0.2c0.2,0,0.4,0,0.6-0.1
					c0.2-0.1,0.3-0.2,0.3-0.4c0-0.1,0-0.2-0.1-0.3c-0.1-0.1-0.3-0.1-0.6-0.2c-0.3-0.1-0.5-0.1-0.8-0.2c-0.3-0.1-0.4-0.1-0.6-0.2
					c-0.1-0.1-0.2-0.2-0.3-0.4c-0.1-0.2-0.1-0.3-0.1-0.5c0-0.3,0.1-0.6,0.3-0.8c0.3-0.3,0.7-0.4,1.2-0.4c0.5,0,0.9,0.2,1.2,0.5
					c0.2,0.2,0.3,0.5,0.3,0.8h-0.8c0-0.2-0.1-0.3-0.1-0.4c-0.1-0.2-0.4-0.2-0.7-0.2c-0.2,0-0.3,0-0.5,0.1c-0.2,0.1-0.2,0.2-0.2,0.4
					c0,0.1,0,0.2,0.1,0.3c0.1,0,0.1,0.1,0.3,0.1l1,0.2c0.3,0.1,0.6,0.2,0.7,0.3c0.2,0.2,0.3,0.4,0.3,0.7c0,0.5-0.2,0.9-0.6,1.1
					c-0.3,0.1-0.6,0.2-0.9,0.2c-0.6,0-1.1-0.2-1.4-0.5C143.5,163.8,143.4,163.5,143.4,163.2z"/>
				<path fill="#FFFFFF" d="M151.3,161.1v3.3h-0.8v-3.3h-1.2v-0.7h3.2v0.7H151.3z"/>
				<path fill="#FFFFFF" d="M158.8,160.4v2.6c0,0.5-0.1,0.9-0.4,1.1c-0.3,0.3-0.7,0.4-1.2,0.4c-0.4,0-0.8-0.1-1-0.3
					c-0.3-0.2-0.5-0.6-0.5-1.2v-2.6h0.8v2.6c0,0.3,0.1,0.5,0.2,0.6c0.1,0.1,0.3,0.2,0.5,0.2c0.3,0,0.5-0.1,0.6-0.2
					c0.1-0.1,0.2-0.3,0.2-0.6v-2.6H158.8z"/>
				<path fill="#FFFFFF" d="M162.2,164.4v-4h1.7c0.6,0,1,0.2,1.3,0.7c0.2,0.3,0.3,0.7,0.3,1.2c0,0.5-0.1,1-0.3,1.4
					c-0.3,0.5-0.7,0.7-1.3,0.7H162.2z M163.1,161.1v2.6h0.8c0.3,0,0.5-0.1,0.7-0.4c0.1-0.2,0.2-0.5,0.2-0.9c0-0.5-0.1-0.9-0.3-1.1
					c-0.1-0.1-0.3-0.2-0.6-0.2H163.1z"/>
				<path fill="#FFFFFF" d="M169.6,160.4v4h-0.8v-4H169.6z"/>
				<path fill="#FFFFFF" d="M172.8,162.4c0-0.6,0.1-1,0.4-1.4c0.2-0.3,0.5-0.5,0.8-0.6c0.2-0.1,0.5-0.1,0.7-0.1c0.3,0,0.5,0,0.7,0.1
					c0.3,0.1,0.6,0.3,0.8,0.6c0.3,0.4,0.4,0.8,0.4,1.4c0,0.6-0.1,1-0.4,1.4c-0.2,0.3-0.5,0.5-0.8,0.6c-0.2,0.1-0.5,0.1-0.7,0.1
					c-0.3,0-0.5,0-0.7-0.1c-0.3-0.1-0.6-0.3-0.8-0.6C172.9,163.4,172.8,163,172.8,162.4z M173.6,162.4c0,0.5,0.1,0.9,0.4,1.1
					c0.2,0.2,0.4,0.3,0.7,0.3c0.3,0,0.5-0.1,0.7-0.3c0.2-0.2,0.4-0.6,0.4-1.1c0-0.5-0.1-0.9-0.4-1.1c-0.2-0.2-0.4-0.3-0.7-0.3
					c-0.3,0-0.5,0.1-0.7,0.3C173.8,161.5,173.6,161.9,173.6,162.4z"/>
			</g>
			
				<image overflow="visible" width="108" height="10" id="Layer_1_1_" xlink:href="661C32C1F3B0FB77.png"  transform="matrix(0.5664 0 0 0.5664 128.3249 146.0495)">
			</image>
		</g>
	</g>
</g>
</svg>
